<svg xmlns="http://www.w3.org/2000/svg" viewBox="0 0 32 32">
  <rect width="32" height="32" fill="#FFFDF9"/>
  <path d="M15,19.2 C15.08,19.23 15.31,19.34 15.48,19.38 C15.65,19.42 15.85,19.45 16.04,19.45 C16.23,19.45 16.43,19.44 16.63,19.39 C16.83,19.34 17.04,19.27 17.24,19.17 C17.44,19.07 17.64,18.95 17.82,18.81 C18,18.67 18.18,18.49 18.34,18.3 C18.5,18.11 18.63,17.89 18.75,17.65 C18.87,17.41 18.97,17.15 19.04,16.88 C19.11,16.61 19.15,16.32 19.16,16.03 C19.17,15.74 19.15,15.43 19.09,15.13 C19.03,14.83 18.94,14.52 18.82,14.22 C18.7,13.92 18.54,13.62 18.35,13.34 C18.16,13.06 17.93,12.79 17.68,12.55 C17.43,12.31 17.13,12.08 16.82,11.89 C16.51,11.7 16.16,11.54 15.8,11.41 C15.44,11.28 15.05,11.18 14.66,11.13 C14.27,11.08 13.85,11.06 13.44,11.09 C13.03,11.12 12.6,11.19 12.19,11.31 C11.78,11.43 11.37,11.59 10.98,11.8 C10.59,12.01 10.2,12.27 9.85,12.56 C9.5,12.85 9.16,13.18 8.87,13.55 C8.58,13.92 8.31,14.34 8.09,14.77 C7.87,15.21 7.69,15.68 7.56,16.16 C7.43,16.65 7.34,17.16 7.31,17.68 C7.28,18.2 7.3,18.74 7.38,19.26 C7.46,19.79 7.58,20.32 7.77,20.83 C7.96,21.34 8.2,21.86 8.5,22.34 C8.8,22.82 9.15,23.28 9.55,23.7 C9.95,24.12 10.4,24.51 10.88,24.85 C11.37,25.19 11.9,25.5 12.46,25.74 C13.02,25.98 13.61,26.18 14.22,26.3 C14.83,26.43 15.47,26.49 16.11,26.49 C16.75,26.49 17.41,26.43 18.05,26.3 C18.69,26.17 19.34,25.97 19.95,25.71 C20.56,25.45 21.17,25.12 21.73,24.73 C22.29,24.34 22.84,23.89 23.32,23.38 C23.8,22.88 24.25,22.31 24.63,21.7 C25.01,21.1 25.34,20.43 25.59,19.75 C25.84,19.07 26.03,18.34 26.15,17.6 C26.27,16.87 26.32,16.1 26.28,15.34 C26.25,14.58 26.13,13.81 25.94,13.06 C25.75,12.31 25.48,11.55 25.14,10.84 C24.8,10.13 24.09,9.13 23.88,8.79" fill="none" stroke="#1A4E5C" stroke-width="2.4" stroke-linecap="round"/>
  <circle cx="23.88" cy="8.79" r="2" fill="#1A4E5C"/>
</svg>